<svg version="1.1" id="Layer_1" xmlns="http://www.w3.org/2000/svg" xmlns:xlink="http://www.w3.org/1999/xlink" x="0px" y="0px"
	 width="100%" viewBox="0 0 1000 1000" enable-background="new 0 0 1000 1000" xml:space="preserve">
<path fill="#000000" opacity="1.000000" stroke="none" 
	d="
M127.000000,1001.000000 
	C85.005547,1001.000000 43.011101,1001.000000 1.012488,1001.000000 
	C1.008325,667.716248 1.008325,334.432526 1.008325,1.074397 
	C334.239685,1.074397 667.479370,1.074397 1000.859497,1.074397 
	C1000.859497,334.333282 1000.859497,667.666626 1000.859497,1001.000000 
	C979.915222,1001.000000 958.917358,1001.000000 937.304932,1000.704651 
	C931.788940,994.945007 926.887451,989.480713 921.806885,983.735291 
	C919.445740,981.415039 917.561646,978.840332 915.028992,977.431274 
	C905.031067,971.868958 895.114929,966.016113 884.648560,961.467285 
	C856.740906,949.338196 828.432129,938.130615 800.544373,925.957581 
	C784.160706,918.805969 771.809998,907.044128 764.506775,890.308533 
	C761.253052,882.852539 757.252258,875.725098 753.677673,868.405945 
	C749.591370,860.038940 745.165283,851.800598 741.692261,843.181763 
	C738.147095,834.383972 732.503235,827.448914 725.427429,821.480957 
	C722.381897,818.912354 719.096741,816.627747 715.797913,813.886353 
	C714.117065,811.876953 712.830505,809.758606 710.952820,808.590271 
	C703.481506,803.941467 695.989624,799.276794 688.203491,795.193665 
	C673.476685,787.470886 658.010620,788.465637 642.596924,792.638855 
	C631.277588,795.703491 622.270447,803.034302 612.931946,809.739685 
	C600.398010,818.739563 586.977112,826.161377 571.563843,828.774902 
	C560.270264,830.689941 548.829834,831.738708 537.032471,833.172974 
	C525.499634,833.119324 514.381470,832.786438 503.281250,833.096741 
	C493.384521,833.373474 483.476074,834.066040 473.631409,835.121643 
	C464.480591,836.102844 456.703583,839.721069 452.980408,849.013977 
	C453.004974,849.003601 453.033295,848.958435 452.820282,849.098938 
	C452.392395,849.500916 452.177521,849.762390 451.983429,850.012329 
	C452.004211,850.000793 452.007751,849.953369 451.785950,850.117798 
	C451.446228,850.809143 451.328278,851.336121 450.983887,852.143921 
	C449.865906,854.196960 449.189636,856.134949 448.000793,857.677979 
	C447.306274,858.579468 445.791046,859.326782 444.648254,859.322327 
	C439.581909,859.302429 434.425598,858.267029 429.466431,858.896240 
	C403.647705,862.172058 381.460541,873.791443 361.286865,889.671204 
	C359.544769,891.042542 358.466064,893.256653 357.067047,895.061768 
	C357.054901,895.044250 357.074066,895.054382 356.747681,895.133667 
	C355.298126,896.175171 354.174957,897.137390 353.039276,898.071350 
	C353.026764,898.043091 353.088287,898.037354 352.850586,898.223389 
	C352.104584,899.030151 351.596344,899.650818 350.866577,900.510132 
	C337.133057,916.535767 323.621002,932.322876 309.888489,948.340820 
	C307.792480,950.708740 305.922699,952.872986 303.035278,949.652466 
	C307.087433,943.123657 311.077057,936.952698 315.136780,930.673340 
	C314.462830,930.139587 314.009277,929.601685 313.431458,929.355164 
	C311.445160,928.507996 309.463562,927.593262 307.394623,927.005310 
	C289.945221,922.046204 272.179230,920.515808 254.094635,921.904602 
	C228.755951,923.850464 205.508041,931.502502 185.455505,947.382202 
	C171.119736,958.734680 157.193222,970.606873 143.171082,982.351013 
	C137.586044,987.028748 132.235184,991.986084 126.775604,996.860107 
	C126.773506,996.904053 126.861496,996.908325 126.750328,997.046204 
	C126.740814,997.499878 126.842476,997.815674 126.952560,998.489990 
	C126.973991,999.565735 126.987000,1000.282837 127.000000,1001.000000 
M250.396606,916.490479 
	C260.802612,916.490479 271.208618,916.490479 281.614624,916.490479 
	C281.613373,916.275574 281.612122,916.060608 281.610870,915.845703 
	C270.514526,915.845703 259.418213,915.845703 248.321869,915.845703 
	C248.322968,916.079529 248.324051,916.313416 248.325150,916.547241 
	C248.820740,916.547241 249.316315,916.547241 250.396606,916.490479 
z"/>
<path fill="#422A10" opacity="1.000000" stroke="none" 
	d="
M715.920471,814.214050 
	C719.096741,816.627747 722.381897,818.912354 725.427429,821.480957 
	C732.503235,827.448914 738.147095,834.383972 741.692261,843.181763 
	C745.165283,851.800598 749.591370,860.038940 753.677673,868.405945 
	C757.252258,875.725098 761.253052,882.852539 764.506775,890.308533 
	C771.809998,907.044128 784.160706,918.805969 800.544373,925.957581 
	C828.432129,938.130615 856.740906,949.338196 884.648560,961.467285 
	C895.114929,966.016113 905.031067,971.868958 915.028992,977.431274 
	C917.561646,978.840332 919.445740,981.415039 921.445618,983.859863 
	C917.841187,984.178589 914.418945,984.091736 910.711304,983.817078 
	C906.283936,981.085388 902.141968,978.541443 897.765381,975.765381 
	C895.551208,975.021362 893.470825,973.858032 891.615234,974.145569 
	C888.597534,974.613159 886.840698,973.827820 885.605591,971.148560 
	C885.056274,969.956848 884.393677,968.585266 883.376648,967.883728 
	C879.978943,965.539856 876.562622,963.049927 872.784424,961.538208 
	C871.680786,961.096680 869.358521,963.750549 867.566162,964.942383 
	C867.164978,965.209167 866.655884,965.358582 866.175110,965.453247 
	C862.621216,966.153503 852.567017,961.416077 851.269775,958.061707 
	C849.457031,953.374268 846.089844,952.030762 841.428406,952.187744 
	C839.563477,952.250549 837.098328,952.005371 835.884827,950.862000 
	C830.668518,945.946960 824.553528,945.173706 817.846497,945.703491 
	C815.600342,945.880859 813.043457,945.734375 811.049500,944.819092 
	C805.078674,942.078430 799.434753,938.619019 793.441711,935.934692 
	C785.993713,932.598816 778.982605,929.765259 772.838684,923.210327 
	C765.107178,914.961670 754.697571,908.816589 742.650208,907.182922 
	C741.024841,906.962463 739.316528,906.471375 737.924072,905.640564 
	C736.189880,904.606079 734.743958,903.088440 733.173584,901.779480 
	C734.463806,900.363464 735.530273,898.592651 737.092285,897.607605 
	C740.051758,895.741150 743.440613,893.599854 742.195618,889.991577 
	C741.192383,887.083923 738.393921,884.273132 735.666565,882.605835 
	C731.592712,880.115112 726.721497,878.958008 722.513855,876.643799 
	C720.609131,875.596191 718.740540,873.340332 718.156860,871.266418 
	C716.861389,866.663513 715.477173,862.468262 711.311707,859.491516 
	C710.194275,858.692993 709.521301,856.202332 709.861328,854.779297 
	C710.124756,853.677124 712.186707,852.705200 713.629150,852.264099 
	C715.243347,851.770386 717.060486,851.940430 719.838135,851.749573 
	C715.121094,843.068909 722.053223,843.346985 727.478088,841.932556 
	C723.548950,837.918091 720.392334,834.692932 717.068054,831.296509 
	C716.231995,832.577515 715.912292,832.843201 715.893494,833.128662 
	C715.312317,841.951843 712.769165,843.482605 704.006653,840.602295 
	C703.019897,840.277954 700.812988,841.007996 700.476257,841.802124 
	C698.530640,846.390137 695.576904,845.915588 691.939697,844.173340 
	C687.859253,842.219055 683.754883,840.224060 679.700317,844.629395 
	C679.008362,845.381287 676.795105,845.204224 675.478638,844.809265 
	C672.945129,844.049316 670.627686,842.462830 668.071777,841.920288 
	C666.296204,841.543396 664.151001,842.016907 662.385742,842.681213 
	C659.373352,843.814697 656.578247,846.442627 653.605347,846.580872 
	C646.545288,846.909180 639.333923,846.624207 633.281555,841.888184 
	C632.574585,841.335022 631.461060,841.111633 630.522400,841.073975 
	C621.277527,840.702881 612.392578,843.257751 604.190735,846.703796 
	C595.170227,850.493713 586.569824,849.995667 577.371460,848.992859 
	C569.049805,848.085632 560.482788,847.696228 552.201111,848.637390 
	C543.765076,849.596008 535.928101,852.399414 528.428040,857.679321 
	C522.301025,861.992676 513.340698,862.129944 505.836914,864.703125 
	C502.106659,865.982239 497.480103,867.731445 495.602112,870.733704 
	C490.531067,878.840332 483.177948,881.637817 474.258240,882.696960 
	C472.966064,879.699219 471.249939,876.738770 467.303223,879.211365 
	C461.066742,883.118530 457.147430,889.107300 454.080048,895.561890 
	C453.534454,896.710022 455.176178,898.897522 455.807892,900.605103 
	C457.279327,899.884216 458.989624,899.424805 460.150879,898.364197 
	C461.184875,897.419739 461.299896,895.316528 462.390686,894.628174 
	C463.549744,893.896729 465.575439,893.755737 466.840546,894.279724 
	C467.556122,894.576111 468.162689,897.072205 467.685364,897.984863 
	C465.329010,902.490417 463.203156,907.344360 459.867645,911.063232 
	C452.613159,919.151428 451.142212,929.838318 446.420898,939.042419 
	C442.997253,945.716675 442.414398,953.786987 439.651031,960.878662 
	C436.977325,967.740234 436.546692,967.550110 442.280060,971.773254 
	C443.322540,972.541077 444.472748,974.556519 444.158539,975.547546 
	C442.020508,982.290161 435.361481,985.721802 428.289185,984.103027 
	C427.218018,983.857910 426.129608,983.687927 424.621643,983.402222 
	C424.042084,986.832520 423.521057,989.916260 422.999176,993.248413 
	C422.998322,993.496826 422.997253,993.993713 422.684631,994.143982 
	C421.248016,996.529480 420.123993,998.764771 419.000000,1001.000000 
	C397.645782,1001.000000 376.291534,1001.000000 354.738525,1000.786011 
	C357.624695,998.622864 361.115234,997.104004 363.721954,994.647278 
	C373.273346,985.645691 383.859253,978.288086 395.850372,972.954712 
	C408.597412,967.285095 417.366241,957.779602 423.541351,945.364136 
	C430.920166,930.528625 433.717743,914.517029 437.242340,898.572754 
	C439.661926,887.627380 442.673431,876.421936 447.771179,866.546204 
	C456.630157,849.383911 472.903412,843.348511 491.367401,842.021545 
	C512.766174,840.483765 534.176758,839.014282 555.530884,836.976868 
	C578.549316,834.780579 599.620422,827.218262 617.960449,812.678589 
	C622.115540,809.384460 626.819092,806.776855 631.301392,803.901794 
	C643.758850,795.911377 657.440063,794.819763 671.689026,796.656494 
	C687.942383,798.751587 702.100769,806.035034 715.920471,814.214050 
M772.425781,916.407593 
	C772.505493,915.741943 772.585266,915.076233 772.664978,914.410583 
	C772.145081,914.654968 771.625183,914.899353 771.105286,915.143738 
	C771.429688,915.627014 771.754089,916.110229 772.425781,916.407593 
M577.438293,844.029236 
	C576.985779,844.332703 576.533203,844.636169 576.080688,844.939636 
	C576.290466,845.161072 576.500244,845.382446 576.710022,845.603821 
	C577.027039,845.158020 577.344116,844.712219 577.438293,844.029236 
z"/>
<path fill="#51381B" opacity="1.000000" stroke="none" 
	d="
M470.000000,1001.000000 
	C463.645599,1001.000000 457.291199,1001.000000 450.492371,1000.609741 
	C452.027039,996.933838 453.402008,992.967224 456.140656,990.537903 
	C459.440247,987.610962 461.865479,984.655640 462.673492,980.345520 
	C463.256073,977.237793 463.832428,974.118225 464.645782,971.066406 
	C467.386047,960.784607 476.530792,955.536194 486.942352,957.583130 
	C490.540649,958.290527 494.443909,957.885864 498.154724,957.490356 
	C505.842468,956.670959 510.339355,950.357361 516.098022,946.306152 
	C518.819031,944.391968 517.419006,941.341064 514.705383,940.431702 
	C508.813049,938.457092 508.059387,935.287659 511.359772,930.455566 
	C511.714630,929.936157 511.702332,929.176880 511.913513,928.546692 
	C514.889038,919.665894 516.887634,910.154968 526.854675,905.842896 
	C527.887939,905.395813 528.768188,904.505066 529.600281,903.697327 
	C536.897278,896.613831 546.189819,892.933594 555.298401,889.184814 
	C568.392578,883.795715 582.319580,882.462952 596.377869,881.836853 
	C600.120850,881.670105 604.021973,880.082031 607.420288,878.317810 
	C612.432129,875.715942 617.285828,873.679871 623.084961,875.085510 
	C624.967896,875.541931 627.183960,875.812195 628.974487,875.268433 
	C640.480347,871.774109 648.249084,876.829346 654.452820,885.891174 
	C657.257629,889.988159 673.710266,894.379578 678.298279,892.258545 
	C679.172546,891.854309 679.978638,891.160645 680.625122,890.431213 
	C682.821777,887.952881 684.703918,888.634033 687.069336,890.428345 
	C689.650513,892.386353 692.645508,893.806396 695.490112,895.407654 
	C698.791748,897.266052 702.133911,899.052368 705.443787,900.896545 
	C708.190430,902.426758 710.750305,904.548035 713.686462,905.426147 
	C718.921265,906.991577 721.454102,910.475952 723.366211,915.272827 
	C724.380737,917.818054 726.434937,920.444031 728.738037,921.887817 
	C735.752502,926.284912 743.173950,930.026672 750.316040,934.229126 
	C753.295288,935.982178 756.168396,938.037903 758.704407,940.374207 
	C760.135620,941.692810 760.783569,943.861572 761.784302,945.647339 
	C760.046143,946.455994 758.333618,947.326233 756.564819,948.061218 
	C752.031860,949.944946 747.473877,951.768433 742.549072,953.511841 
	C740.449097,952.882324 738.725952,952.356995 737.170349,951.545166 
	C739.094299,950.098083 741.006104,949.112793 742.565369,947.729858 
	C744.287476,946.202820 745.686401,944.311340 747.226074,942.578613 
	C745.418640,941.128479 743.773254,938.747498 741.773865,938.399353 
	C735.271484,937.267090 729.007263,936.083679 724.505005,930.619690 
	C724.034668,930.048767 723.045471,929.609741 722.296753,929.609253 
	C714.091736,929.603821 711.903931,921.989624 707.128052,917.677979 
	C704.881042,915.649536 702.965820,913.241028 700.648621,911.305969 
	C697.786987,908.916138 694.696472,906.793091 691.639465,904.647888 
	C690.153503,903.605042 688.518982,902.773865 686.951721,901.846863 
	C686.098633,903.489197 684.716614,905.064758 684.499329,906.787292 
	C684.003052,910.722168 684.218689,914.741150 683.881470,918.703491 
	C683.490784,923.292175 682.323975,923.672791 678.349731,921.382935 
	C677.342285,920.802551 674.790955,920.894653 674.460327,921.501343 
	C673.168640,923.871948 672.482788,926.572754 671.341431,929.802307 
	C673.658386,929.090576 675.082214,928.653198 676.560059,928.199219 
	C677.032166,935.196106 678.959656,942.258179 670.877625,946.071716 
	C670.416443,946.289246 670.293945,947.224487 669.609985,947.827759 
	C655.792175,944.114807 642.385315,940.373840 628.962036,936.692749 
	C617.435669,933.531860 606.059143,929.360962 594.321045,927.525452 
	C563.256592,922.667969 546.865540,940.132019 545.255371,964.660583 
	C544.464600,976.705505 545.688110,988.882690 546.000000,1001.000000 
	C541.643127,1001.000000 537.286194,1001.000000 532.322632,1000.692078 
	C529.827759,997.256897 526.894958,994.314331 526.301270,990.958008 
	C525.454895,986.173523 523.380920,983.516785 518.989197,981.992310 
	C514.602905,980.469666 510.150757,978.956909 506.057404,976.810608 
	C499.257233,973.244995 492.057373,973.598511 485.465424,975.760864 
	C482.070160,976.874512 479.592377,981.494934 477.260895,984.913391 
	C475.454956,987.561157 474.519135,990.802490 473.198120,993.780701 
	C472.130920,996.186646 471.065979,998.593567 470.000000,1001.000000 
z"/>
<path fill="#4D3418" opacity="1.000000" stroke="none" 
	d="
M742.925903,953.616028 
	C747.473877,951.768433 752.031860,949.944946 756.564819,948.061218 
	C758.333618,947.326233 760.046143,946.455994 761.784302,945.647339 
	C760.783569,943.861572 760.135620,941.692810 758.704407,940.374207 
	C756.168396,938.037903 753.295288,935.982178 750.316040,934.229126 
	C743.173950,930.026672 735.752502,926.284912 728.738037,921.887817 
	C726.434937,920.444031 724.380737,917.818054 723.366211,915.272827 
	C721.454102,910.475952 718.921265,906.991577 713.686462,905.426147 
	C710.750305,904.548035 708.190430,902.426758 705.443787,900.896545 
	C702.133911,899.052368 698.791748,897.266052 695.490112,895.407654 
	C692.645508,893.806396 689.650513,892.386353 687.069336,890.428345 
	C684.703918,888.634033 682.821777,887.952881 680.625122,890.431213 
	C679.978638,891.160645 679.172546,891.854309 678.298279,892.258545 
	C673.710266,894.379578 657.257629,889.988159 654.452820,885.891174 
	C648.249084,876.829346 640.480347,871.774109 628.974487,875.268433 
	C627.183960,875.812195 624.967896,875.541931 623.084961,875.085510 
	C617.285828,873.679871 612.432129,875.715942 607.420288,878.317810 
	C604.021973,880.082031 600.120850,881.670105 596.377869,881.836853 
	C582.319580,882.462952 568.392578,883.795715 555.298401,889.184814 
	C546.189819,892.933594 536.897278,896.613831 529.600281,903.697327 
	C528.768188,904.505066 527.887939,905.395813 526.854675,905.842896 
	C516.887634,910.154968 514.889038,919.665894 511.913513,928.546692 
	C511.702332,929.176880 511.714630,929.936157 511.359772,930.455566 
	C508.059387,935.287659 508.813049,938.457092 514.705383,940.431702 
	C517.419006,941.341064 518.819031,944.391968 516.098022,946.306152 
	C510.339355,950.357361 505.842468,956.670959 498.154724,957.490356 
	C494.443909,957.885864 490.540649,958.290527 486.942352,957.583130 
	C476.530792,955.536194 467.386047,960.784607 464.645782,971.066406 
	C463.832428,974.118225 463.256073,977.237793 462.673492,980.345520 
	C461.865479,984.655640 459.440247,987.610962 456.140656,990.537903 
	C453.402008,992.967224 452.027039,996.933838 450.023987,1000.609741 
	C439.979095,1001.000000 429.958221,1001.000000 419.468658,1001.000000 
	C420.123993,998.764771 421.248016,996.529480 422.933350,994.341064 
	C430.476196,994.877441 437.780640,996.670715 443.606445,991.016235 
	C448.601349,986.168335 454.832794,981.721863 457.686096,975.745972 
	C461.875702,966.971375 466.769562,958.817932 471.677948,950.493225 
	C476.754364,941.883606 476.142212,940.875671 485.982941,941.318054 
	C490.627258,941.526917 492.777527,938.759827 491.303711,934.286560 
	C490.899109,933.058472 490.078186,931.947449 489.345825,930.851135 
	C486.674225,926.851318 487.657196,924.516602 492.162415,923.286255 
	C494.295654,922.703674 496.293457,921.447571 498.199585,920.252502 
	C501.001099,918.495972 503.672791,916.531189 506.386688,914.636414 
	C511.930359,910.766113 517.465271,906.883301 523.001892,903.002808 
	C523.000000,903.000000 523.005676,903.005005 523.342896,902.891052 
	C525.418335,900.948730 528.097229,899.383179 528.696777,897.236755 
	C529.900330,892.927795 532.432068,890.318604 536.165405,888.469421 
	C540.784363,886.181641 545.390076,883.863708 550.055969,881.674866 
	C563.128174,875.542542 576.078064,869.017151 591.292297,870.794678 
	C593.490112,871.051453 595.973633,870.388733 598.091248,869.556763 
	C611.816345,864.164062 626.131531,864.543213 640.430237,865.221863 
	C644.001404,865.391418 647.544128,866.781311 651.039185,867.815430 
	C660.067322,870.486450 669.026123,873.396729 678.080750,875.971985 
	C685.267700,878.016052 692.633972,879.455261 699.755920,881.688293 
	C702.263000,882.474243 705.257385,884.350281 706.315552,886.552185 
	C708.393677,890.876648 711.053772,893.996582 715.491943,895.767334 
	C716.478821,896.161072 717.565430,897.187683 717.906860,898.166748 
	C719.602173,903.028137 723.504089,904.401855 728.249939,905.123352 
	C728.996948,905.501160 729.494812,905.753235 730.134338,906.312500 
	C731.668030,908.007568 733.017456,909.441467 734.459839,910.774780 
	C739.819397,915.729248 745.177979,920.685791 750.604736,925.566223 
	C752.652588,927.407898 754.628479,929.804871 757.081116,930.631714 
	C764.339172,933.078308 771.052612,936.029053 775.558838,942.631592 
	C776.184265,943.547974 777.258423,944.301941 778.288208,944.776367 
	C789.120728,949.767029 799.880188,954.940247 810.880981,959.533142 
	C818.040833,962.522461 825.672180,964.370972 832.882874,967.254395 
	C836.676941,968.771606 839.919128,971.613159 843.595947,973.494263 
	C847.655090,975.571167 851.782715,977.732239 856.131653,978.984558 
	C870.485229,983.117798 884.964722,986.811218 899.370178,990.767151 
	C906.581238,992.747437 913.789001,994.772522 920.882446,997.126404 
	C922.805054,997.764343 924.305725,999.674011 926.000000,1001.000000 
	C918.312439,1001.000000 910.624817,1001.000000 902.314087,1000.699951 
	C899.621887,998.812439 897.746704,996.268066 895.450256,995.802795 
	C885.405151,993.767578 875.287964,991.631348 865.099121,990.906189 
	C856.905457,990.322937 849.715881,988.820435 844.022949,982.558594 
	C841.792297,980.105103 839.596497,977.487915 836.926941,975.588989 
	C826.538696,968.199768 814.538269,968.088440 802.480225,968.513611 
	C802.153687,968.525085 801.752197,968.559937 801.520203,968.749023 
	C800.185242,969.837158 797.872620,970.938721 797.831055,972.104797 
	C797.774658,973.690063 799.115356,976.304382 800.465698,976.792175 
	C806.536804,978.985657 807.354736,982.789917 804.626221,987.911743 
	C795.995605,981.271301 788.287231,973.619080 779.120361,968.666321 
	C767.683655,962.487000 755.045410,958.531616 742.925903,953.616028 
z"/>
<path fill="#4F3519" opacity="1.000000" stroke="none" 
	d="
M300.000000,1001.000000 
	C245.645767,1001.000000 191.291550,1001.000000 136.689392,1000.736816 
	C141.459869,995.738281 148.118225,997.514709 153.952042,996.021790 
	C161.122040,994.186890 168.441391,992.617126 175.277161,989.884521 
	C182.099503,987.157349 182.348877,986.621033 186.756058,992.464050 
	C188.615036,994.928711 190.094498,995.452209 192.908951,993.489685 
	C194.601822,992.309326 197.330307,992.479736 199.612122,992.331177 
	C200.875534,992.248962 202.175232,992.955200 203.462585,992.970520 
	C209.480988,993.042358 215.579773,992.182678 221.231354,995.335693 
	C222.290176,995.926392 223.887344,995.979858 225.130814,995.738647 
	C230.804443,994.637939 236.467331,993.452515 242.078583,992.072021 
	C244.777786,991.407959 247.562180,990.590027 249.907791,989.177246 
	C251.304840,988.335876 252.780121,986.182312 252.740631,984.656982 
	C252.598587,979.170044 251.330261,974.137451 247.518494,969.539429 
	C245.148712,966.680908 243.765335,962.165100 243.809860,958.415344 
	C243.844299,955.516235 246.783295,952.651611 248.653076,949.383484 
	C251.089279,949.540161 254.550919,949.762756 258.255341,949.993713 
	C258.498108,950.002075 258.983612,950.018494 259.111328,950.336853 
	C260.862244,954.272522 264.115509,957.211121 262.181091,962.141296 
	C261.613495,963.587769 264.375824,966.665039 266.155212,968.454773 
	C266.545349,968.847229 269.411011,967.147827 270.858032,966.045898 
	C274.248322,963.464172 276.306396,963.810059 278.524719,967.195496 
	C279.440399,968.593079 280.919067,969.923035 282.444366,970.569397 
	C290.425171,973.951111 297.929535,973.762817 304.607025,967.324463 
	C313.009857,959.222412 323.630341,955.403564 334.491486,951.946960 
	C336.419830,951.333191 338.458771,949.054199 339.202026,947.076416 
	C342.481140,938.350342 348.209229,932.399658 357.210541,929.850159 
	C365.842316,927.405334 374.623596,925.442017 383.138092,922.653076 
	C386.345276,921.602539 390.104858,919.457275 391.653442,916.707581 
	C394.800171,911.120239 399.860840,908.638733 404.956238,905.878296 
	C411.241638,902.473267 415.976746,904.596313 420.889862,909.311768 
	C424.750641,913.017090 425.614777,913.649475 421.938934,917.276123 
	C417.149994,922.001160 414.150238,927.196655 413.641541,934.249817 
	C413.015686,942.927795 403.045319,948.237183 395.177826,944.980103 
	C393.244629,944.179810 390.990082,943.587463 388.944275,943.736511 
	C383.410187,944.139648 377.899963,944.930664 372.402252,945.721008 
	C371.323547,945.876099 370.354645,946.742065 369.316071,947.240540 
	C367.394012,948.162964 365.323120,948.853577 363.567535,950.021484 
	C361.969971,951.084229 360.725861,952.671021 359.295227,953.993652 
	C357.256104,955.878906 355.321350,957.913696 353.096771,959.551514 
	C350.815674,961.230957 348.092438,962.315552 345.838318,964.024048 
	C344.021667,965.401123 342.615692,967.319885 340.657471,969.079712 
	C337.500214,969.611633 334.482483,970.583374 333.456757,966.537476 
	C331.858582,960.233398 331.883270,960.234375 326.006348,962.908203 
	C324.950653,963.388550 323.862274,963.797485 322.785736,964.231323 
	C315.413452,967.202576 311.373871,973.320801 311.333160,980.422791 
	C314.277374,982.995850 316.820557,984.864441 318.920227,987.141968 
	C321.621582,990.072144 324.135712,990.320984 326.837219,987.264465 
	C328.146423,985.783325 329.075562,982.865173 330.425873,982.705566 
	C337.613647,981.855896 339.575989,976.793213 341.161865,971.292419 
	C342.088318,975.707825 342.829163,979.838196 343.355621,982.773315 
	C337.523956,985.817444 332.440643,988.785828 327.086639,991.137756 
	C324.242950,992.386963 320.829254,993.409607 317.849823,993.053589 
	C311.816284,992.332642 303.427673,995.594116 300.000000,1001.000000 
M393.443390,931.003662 
	C392.466858,933.146057 391.069824,935.223328 390.723053,937.463257 
	C390.586487,938.345215 393.482452,940.708374 393.828491,940.495605 
	C397.007172,938.541321 400.483002,936.596252 402.688080,933.735718 
	C403.764130,932.339722 402.332123,929.010437 402.035370,926.556213 
	C400.051453,927.178528 398.015015,927.676208 396.107574,928.480103 
	C395.255920,928.838989 394.663574,929.813232 393.443390,931.003662 
z"/>
<path fill="#493015" opacity="1.000000" stroke="none" 
	d="
M341.027527,968.998291 
	C342.615692,967.319885 344.021667,965.401123 345.838318,964.024048 
	C348.092438,962.315552 350.815674,961.230957 353.096771,959.551514 
	C355.321350,957.913696 357.256104,955.878906 359.295227,953.993652 
	C360.725861,952.671021 361.969971,951.084229 363.567535,950.021484 
	C365.323120,948.853577 367.394012,948.162964 369.316071,947.240540 
	C370.354645,946.742065 371.323547,945.876099 372.402252,945.721008 
	C377.899963,944.930664 383.410187,944.139648 388.944275,943.736511 
	C390.990082,943.587463 393.244629,944.179810 395.177826,944.980103 
	C403.045319,948.237183 413.015686,942.927795 413.641541,934.249817 
	C414.150238,927.196655 417.149994,922.001160 421.938934,917.276123 
	C425.614777,913.649475 424.750641,913.017090 420.889862,909.311768 
	C415.976746,904.596313 411.241638,902.473267 404.956238,905.878296 
	C399.860840,908.638733 394.800171,911.120239 391.653442,916.707581 
	C390.104858,919.457275 386.345276,921.602539 383.138092,922.653076 
	C374.623596,925.442017 365.842316,927.405334 357.210541,929.850159 
	C348.209229,932.399658 342.481140,938.350342 339.202026,947.076416 
	C338.458771,949.054199 336.419830,951.333191 334.491486,951.946960 
	C323.630341,955.403564 313.009857,959.222412 304.607025,967.324463 
	C297.929535,973.762817 290.425171,973.951111 282.444366,970.569397 
	C280.919067,969.923035 279.440399,968.593079 278.524719,967.195496 
	C276.306396,963.810059 274.248322,963.464172 270.858032,966.045898 
	C269.411011,967.147827 266.545349,968.847229 266.155212,968.454773 
	C264.375824,966.665039 261.613495,963.587769 262.181091,962.141296 
	C264.115509,957.211121 260.862244,954.272522 259.534363,950.343872 
	C263.093048,950.626709 266.335510,951.430847 269.625427,951.758179 
	C273.210510,952.114746 275.879272,952.704041 274.786560,957.412231 
	C274.572327,958.335083 276.040070,959.911926 277.068817,960.794678 
	C278.431458,961.963928 280.035553,962.968994 281.698792,963.642273 
	C283.974426,964.563477 287.114502,966.369324 288.607361,965.528625 
	C291.140930,964.102112 293.722046,961.167664 294.419464,958.397705 
	C295.963196,952.266541 296.808411,950.814514 302.972748,950.010254 
	C305.922699,952.872986 307.792480,950.708740 310.078339,948.609009 
	C312.471832,952.385803 315.220306,953.850708 318.984680,951.126526 
	C325.438629,946.456055 331.812256,941.673767 338.175507,936.879944 
	C338.947723,936.298218 339.697662,935.451172 340.036438,934.565735 
	C344.037872,924.109802 353.222534,921.091431 362.668182,917.577515 
	C371.456177,914.308289 379.955994,909.857300 387.909393,904.855896 
	C397.586456,898.770508 403.806000,888.082336 414.876007,883.652649 
	C418.207642,882.319458 421.613403,880.799133 425.111511,880.351746 
	C429.203674,879.828369 432.704102,881.383972 433.297150,886.641846 
	C431.200317,896.854248 429.383118,906.727661 427.134949,916.502075 
	C421.992004,938.861755 413.561371,958.658203 390.636139,969.174927 
	C380.983643,973.602966 372.190582,980.292236 363.804810,986.957520 
	C358.210449,991.404175 352.667694,995.108643 345.763092,996.998047 
	C343.636292,997.580017 341.909790,999.625000 340.000000,1001.000000 
	C326.979095,1001.000000 313.958221,1001.000000 300.468658,1001.000000 
	C303.427673,995.594116 311.816284,992.332642 317.849823,993.053589 
	C320.829254,993.409607 324.242950,992.386963 327.086639,991.137756 
	C332.440643,988.785828 337.523956,985.817444 343.355621,982.773315 
	C342.829163,979.838196 342.088318,975.707825 341.171082,970.957397 
	C341.005615,969.891052 341.016602,969.444641 341.027527,968.998291 
z"/>
<path fill="#422A10" opacity="1.000000" stroke="none" 
	d="
M807.000000,1001.000000 
	C805.285645,1001.000000 803.571228,1001.000000 801.357849,1000.667358 
	C800.035217,997.954956 799.360474,994.836670 795.895691,996.888611 
	C792.684143,998.790588 791.849304,997.191650 790.238953,994.769592 
	C787.017639,989.924561 783.487122,985.395874 776.639771,985.093445 
	C771.412415,984.862488 766.210815,983.728577 761.031311,982.807617 
	C752.403137,981.273560 743.863708,979.000427 735.176636,978.084961 
	C714.712158,975.928345 694.145935,975.040344 674.382629,968.110413 
	C668.218872,965.949158 661.095337,966.569031 654.426086,965.788269 
	C650.663879,965.347900 646.922607,964.702820 643.188660,964.053467 
	C634.213135,962.492371 625.300049,960.375183 616.262695,959.423767 
	C607.697021,958.521973 599.006042,958.725769 590.368286,958.646057 
	C587.936523,958.623657 585.166077,958.703491 583.133240,959.808105 
	C579.120789,961.988403 575.415100,964.244995 570.522034,962.973999 
	C569.556824,962.723328 567.818237,963.682983 567.088196,964.602173 
	C564.028748,968.455322 560.787231,972.271240 558.453552,976.558655 
	C556.653503,979.865601 554.958557,982.559753 550.917480,982.528503 
	C550.952026,976.235657 550.790894,970.391907 551.176819,964.584595 
	C552.262573,948.244934 562.363403,935.668091 576.656860,933.566650 
	C582.334167,932.731995 588.531006,932.435608 594.008484,933.813538 
	C608.994202,937.583313 623.879211,941.914429 638.510254,946.887817 
	C653.244141,951.896118 668.135742,954.179993 683.665710,953.635132 
	C694.292664,953.262329 705.167908,952.535889 715.558777,954.241882 
	C748.701538,959.683228 780.254700,969.143982 803.430786,995.914856 
	C804.511963,997.163696 805.848511,998.191528 807.057739,999.601685 
	C807.032898,1000.254089 807.016479,1000.627014 807.000000,1001.000000 
z"/>
<path fill="#493015" opacity="1.000000" stroke="none" 
	d="
M550.971558,982.994263 
	C554.958557,982.559753 556.653503,979.865601 558.453552,976.558655 
	C560.787231,972.271240 564.028748,968.455322 567.088196,964.602173 
	C567.818237,963.682983 569.556824,962.723328 570.522034,962.973999 
	C575.415100,964.244995 579.120789,961.988403 583.133240,959.808105 
	C585.166077,958.703491 587.936523,958.623657 590.368286,958.646057 
	C599.006042,958.725769 607.697021,958.521973 616.262695,959.423767 
	C625.300049,960.375183 634.213135,962.492371 643.188660,964.053467 
	C646.922607,964.702820 650.663879,965.347900 654.426086,965.788269 
	C661.095337,966.569031 668.218872,965.949158 674.382629,968.110413 
	C694.145935,975.040344 714.712158,975.928345 735.176636,978.084961 
	C743.863708,979.000427 752.403137,981.273560 761.031311,982.807617 
	C766.210815,983.728577 771.412415,984.862488 776.639771,985.093445 
	C783.487122,985.395874 787.017639,989.924561 790.238953,994.769592 
	C791.849304,997.191650 792.684143,998.790588 795.895691,996.888611 
	C799.360474,994.836670 800.035217,997.954956 800.929443,1000.667358 
	C796.975464,1001.000000 792.950928,1001.000000 788.296997,1000.694946 
	C783.237671,995.817139 779.521729,996.011414 776.000000,1001.000000 
	C773.629456,1001.000000 771.258850,1001.000000 768.361206,1000.655640 
	C763.332092,992.474915 756.450989,988.428467 747.533203,988.080505 
	C741.056885,987.827881 734.534485,988.454651 728.568787,984.917969 
	C727.455750,984.258118 725.637756,984.526672 724.194824,984.726196 
	C715.022095,985.994324 705.857727,987.752869 697.054321,982.938477 
	C696.194519,982.468262 694.478027,982.497864 693.731873,983.058167 
	C688.638489,986.882690 683.365356,985.696045 678.009766,983.989868 
	C678.006104,983.993591 678.013428,983.981018 678.011475,983.735718 
	C678.009521,983.490417 678.004883,982.999817 677.909058,982.659058 
	C675.519287,978.392944 663.593018,973.394958 658.960754,975.308838 
	C652.900085,977.812927 647.107117,980.757629 640.296265,980.154541 
	C640.144104,980.141113 639.972107,980.231995 639.824463,980.304749 
	C636.419739,981.981323 633.698303,981.293152 630.820068,978.687073 
	C626.935303,975.169678 623.218262,976.013367 620.579895,980.604431 
	C619.687927,982.156616 619.141785,983.970825 618.750854,985.734802 
	C617.883057,989.650818 615.558228,991.578796 611.607422,992.268494 
	C606.816772,993.104858 602.755493,991.868713 598.984436,989.070251 
	C597.929077,988.287109 596.842407,986.885376 595.773254,986.888306 
	C588.662354,986.907776 584.096558,982.006714 578.931091,978.387573 
	C575.542175,976.013184 572.205994,975.332275 568.762390,977.559448 
	C565.197693,979.864929 563.799011,983.357971 565.078186,987.525635 
	C566.033447,990.638123 567.314880,993.650452 568.212830,996.066528 
	C565.037415,997.766968 562.018738,999.383484 559.000000,1001.000000 
	C559.000000,1001.000000 558.500000,1001.000000 558.166199,1000.658081 
	C555.676941,998.206787 553.521484,996.097412 551.311462,993.533081 
	C551.161743,989.716858 551.066650,986.355591 550.971558,982.994263 
M592.594727,964.824707 
	C591.672974,966.555725 590.751221,968.286804 589.829468,970.017822 
	C591.633545,969.874451 593.587402,970.125488 595.211548,969.508545 
	C598.990906,968.072754 601.816528,969.218567 604.877380,971.493896 
	C606.167725,972.453186 608.573486,971.912048 610.472168,972.052979 
	C609.973450,970.076660 610.122681,967.354675 608.860107,966.257446 
	C604.248718,962.250305 598.767822,962.662720 592.594727,964.824707 
z"/>
<path fill="#090602" opacity="1.000000" stroke="none" 
	d="
M340.464661,1001.000000 
	C341.909790,999.625000 343.636292,997.580017 345.763092,996.998047 
	C352.667694,995.108643 358.210449,991.404175 363.804810,986.957520 
	C372.190582,980.292236 380.983643,973.602966 390.636139,969.174927 
	C413.561371,958.658203 421.992004,938.861755 427.134949,916.502075 
	C429.383118,906.727661 431.200317,896.854248 433.449341,886.304504 
	C436.352509,878.128235 439.019531,870.673157 441.960205,862.453247 
	C437.955872,862.453247 434.395508,862.159302 430.897369,862.501404 
	C409.527618,864.591187 390.461334,872.738464 372.887665,884.788574 
	C367.703583,888.343384 362.353333,891.655823 357.079193,895.079285 
	C358.466064,893.256653 359.544769,891.042542 361.286865,889.671204 
	C381.460541,873.791443 403.647705,862.172058 429.466431,858.896240 
	C434.425598,858.267029 439.581909,859.302429 444.648254,859.322327 
	C445.791046,859.326782 447.306274,858.579468 448.000793,857.677979 
	C449.189636,856.134949 449.865906,854.196960 451.142639,851.932190 
	C451.687836,850.944153 451.847778,850.448730 452.007751,849.953369 
	C452.007751,849.953369 452.004211,850.000793 452.201080,849.877319 
	C452.609741,849.488708 452.821533,849.223572 453.033325,848.958435 
	C453.033295,848.958435 453.004974,849.003601 453.326477,848.943604 
	C462.665253,842.664917 472.477844,838.198303 483.417114,837.112976 
	C494.792511,835.984375 506.241913,835.615112 517.652710,834.823853 
	C524.259827,834.365601 530.854553,833.729614 537.454895,833.173584 
	C548.829834,831.738708 560.270264,830.689941 571.563843,828.774902 
	C586.977112,826.161377 600.398010,818.739563 612.931946,809.739685 
	C622.270447,803.034302 631.277588,795.703491 642.596924,792.638855 
	C658.010620,788.465637 673.476685,787.470886 688.203491,795.193665 
	C695.989624,799.276794 703.481506,803.941467 710.952820,808.590271 
	C712.830505,809.758606 714.117065,811.876953 715.797913,813.886353 
	C702.100769,806.035034 687.942383,798.751587 671.689026,796.656494 
	C657.440063,794.819763 643.758850,795.911377 631.301392,803.901794 
	C626.819092,806.776855 622.115540,809.384460 617.960449,812.678589 
	C599.620422,827.218262 578.549316,834.780579 555.530884,836.976868 
	C534.176758,839.014282 512.766174,840.483765 491.367401,842.021545 
	C472.903412,843.348511 456.630157,849.383911 447.771179,866.546204 
	C442.673431,876.421936 439.661926,887.627380 437.242340,898.572754 
	C433.717743,914.517029 430.920166,930.528625 423.541351,945.364136 
	C417.366241,957.779602 408.597412,967.285095 395.850372,972.954712 
	C383.859253,978.288086 373.273346,985.645691 363.721954,994.647278 
	C361.115234,997.104004 357.624695,998.622864 354.269867,1000.786011 
	C349.643097,1001.000000 345.286194,1001.000000 340.464661,1001.000000 
z"/>
<path fill="#493015" opacity="1.000000" stroke="none" 
	d="
M258.012573,949.985352 
	C254.550919,949.762756 251.089279,949.540161 248.653076,949.383484 
	C246.783295,952.651611 243.844299,955.516235 243.809860,958.415344 
	C243.765335,962.165100 245.148712,966.680908 247.518494,969.539429 
	C251.330261,974.137451 252.598587,979.170044 252.740631,984.656982 
	C252.780121,986.182312 251.304840,988.335876 249.907791,989.177246 
	C247.562180,990.590027 244.777786,991.407959 242.078583,992.072021 
	C236.467331,993.452515 230.804443,994.637939 225.130814,995.738647 
	C223.887344,995.979858 222.290176,995.926392 221.231354,995.335693 
	C215.579773,992.182678 209.480988,993.042358 203.462585,992.970520 
	C202.175232,992.955200 200.875534,992.248962 199.612122,992.331177 
	C197.330307,992.479736 194.601822,992.309326 192.908951,993.489685 
	C190.094498,995.452209 188.615036,994.928711 186.756058,992.464050 
	C182.348877,986.621033 182.099503,987.157349 175.277161,989.884521 
	C168.441391,992.617126 161.122040,994.186890 153.952042,996.021790 
	C148.118225,997.514709 141.459869,995.738281 136.220734,1000.736816 
	C133.299988,1001.000000 130.599976,1001.000000 127.449982,1001.000000 
	C126.987000,1000.282837 126.973991,999.565735 126.933640,998.183838 
	C126.891350,997.315552 126.876427,997.111938 126.861496,996.908325 
	C126.861496,996.908325 126.773506,996.904053 127.149460,996.797363 
	C130.450089,995.181213 133.330994,993.578613 136.307388,992.179138 
	C146.654037,987.314331 156.927902,982.269226 167.453674,977.823547 
	C171.597565,976.073303 175.581482,977.344360 178.098343,981.804321 
	C178.756592,982.970764 181.220444,984.454895 181.848404,984.084778 
	C185.908752,981.692200 189.855118,979.029297 193.514099,976.055481 
	C196.784531,973.397461 199.534073,970.103333 202.758621,967.380249 
	C203.422623,966.819458 205.482864,967.115479 206.358749,967.756042 
	C208.699768,969.467834 210.746902,971.581604 213.311584,973.897461 
	C211.281006,975.615234 209.271332,976.722595 208.184814,978.420593 
	C207.303940,979.797241 207.031525,983.324585 207.346130,983.434021 
	C210.721756,984.608032 214.266205,985.808167 217.768127,985.819275 
	C218.933746,985.822998 220.544418,982.574768 221.196823,980.567749 
	C222.878067,975.396301 222.648804,969.003052 230.397339,968.403320 
	C231.029907,968.354370 231.553436,967.271484 232.181580,966.731812 
	C238.350449,961.432251 240.297867,954.303711 240.553772,946.616516 
	C240.665161,943.270569 242.264999,941.894897 245.165695,941.118958 
	C250.688812,939.641479 255.627258,942.997375 258.012573,949.985352 
z"/>
<path fill="#090602" opacity="1.000000" stroke="none" 
	d="
M550.917480,982.528503 
	C551.066650,986.355591 551.161743,989.716858 551.274658,993.924683 
	C551.528320,996.847412 551.764160,998.923706 552.000000,1001.000000 
	C550.285645,1001.000000 548.571289,1001.000000 546.428467,1001.000000 
	C545.688110,988.882690 544.464600,976.705505 545.255371,964.660583 
	C546.865540,940.132019 563.256592,922.667969 594.321045,927.525452 
	C606.059143,929.360962 617.435669,933.531860 628.962036,936.692749 
	C642.385315,940.373840 655.792175,944.114807 670.072815,947.867798 
	C673.586243,947.931274 676.247925,948.151855 678.877380,947.950989 
	C698.443909,946.456299 717.876160,946.808777 737.002808,951.831665 
	C738.725952,952.356995 740.449097,952.882324 742.549072,953.511841 
	C755.045410,958.531616 767.683655,962.487000 779.120361,968.666321 
	C788.287231,973.619080 795.995605,981.271301 804.631226,987.888550 
	C804.911255,988.051514 804.907532,988.081299 805.073730,988.370239 
	C806.562561,990.299622 808.008545,991.857117 809.179565,993.599365 
	C811.035828,996.361084 810.684448,998.491638 807.066162,999.322266 
	C805.848511,998.191528 804.511963,997.163696 803.430786,995.914856 
	C780.254700,969.143982 748.701538,959.683228 715.558777,954.241882 
	C705.167908,952.535889 694.292664,953.262329 683.665710,953.635132 
	C668.135742,954.179993 653.244141,951.896118 638.510254,946.887817 
	C623.879211,941.914429 608.994202,937.583313 594.008484,933.813538 
	C588.531006,932.435608 582.334167,932.731995 576.656860,933.566650 
	C562.363403,935.668091 552.262573,948.244934 551.176819,964.584595 
	C550.790894,970.391907 550.952026,976.235657 550.917480,982.528503 
z"/>
<path fill="#51381B" opacity="1.000000" stroke="none" 
	d="
M804.906250,988.074768 
	C807.354736,982.789917 806.536804,978.985657 800.465698,976.792175 
	C799.115356,976.304382 797.774658,973.690063 797.831055,972.104797 
	C797.872620,970.938721 800.185242,969.837158 801.520203,968.749023 
	C801.752197,968.559937 802.153687,968.525085 802.480225,968.513611 
	C814.538269,968.088440 826.538696,968.199768 836.926941,975.588989 
	C839.596497,977.487915 841.792297,980.105103 844.022949,982.558594 
	C849.715881,988.820435 856.905457,990.322937 865.099121,990.906189 
	C875.287964,991.631348 885.405151,993.767578 895.450256,995.802795 
	C897.746704,996.268066 899.621887,998.812439 901.845459,1000.699951 
	C872.312439,1001.000000 842.624878,1001.000000 812.580505,1000.635193 
	C815.638489,989.576599 813.909180,986.695557 804.907532,988.081299 
	C804.907532,988.081299 804.911255,988.051514 804.906250,988.074768 
z"/>
<path fill="#493015" opacity="1.000000" stroke="none" 
	d="
M926.375000,1001.000000 
	C924.305725,999.674011 922.805054,997.764343 920.882446,997.126404 
	C913.789001,994.772522 906.581238,992.747437 899.370178,990.767151 
	C884.964722,986.811218 870.485229,983.117798 856.131653,978.984558 
	C851.782715,977.732239 847.655090,975.571167 843.595947,973.494263 
	C839.919128,971.613159 836.676941,968.771606 832.882874,967.254395 
	C825.672180,964.370972 818.040833,962.522461 810.880981,959.533142 
	C799.880188,954.940247 789.120728,949.767029 778.288208,944.776367 
	C777.258423,944.301941 776.184265,943.547974 775.558838,942.631592 
	C771.052612,936.029053 764.339172,933.078308 757.081116,930.631714 
	C754.628479,929.804871 752.652588,927.407898 750.604736,925.566223 
	C745.177979,920.685791 739.819397,915.729248 734.459839,910.774780 
	C733.017456,909.441467 731.668030,908.007568 730.501770,906.409607 
	C744.547485,908.816467 755.596924,915.897766 764.533264,926.678833 
	C766.121521,928.594849 768.813477,929.709778 771.159119,930.862366 
	C777.562317,934.008789 784.237732,936.643799 790.467041,940.092407 
	C800.841675,945.836060 810.702026,952.548523 821.254944,957.917480 
	C829.475586,962.099854 838.393616,964.928650 847.050537,968.231079 
	C854.320312,971.004395 861.574890,973.873108 869.005615,976.145691 
	C872.745605,977.289490 876.943726,977.912415 880.785156,977.470764 
	C884.573120,977.035156 887.771118,976.892273 891.216797,978.904907 
	C894.210327,980.653320 897.089661,980.117126 898.000000,975.997559 
	C902.141968,978.541443 906.283936,981.085388 910.910767,984.090698 
	C913.822205,985.868103 916.134277,987.496155 918.698547,988.437134 
	C924.688904,990.635437 928.435669,994.456909 929.000000,1001.000000 
	C928.250000,1001.000000 927.500000,1001.000000 926.375000,1001.000000 
z"/>
<path fill="#4D3418" opacity="1.000000" stroke="none" 
	d="
M559.468628,1001.000000 
	C562.018738,999.383484 565.037415,997.766968 568.212830,996.066528 
	C567.314880,993.650452 566.033447,990.638123 565.078186,987.525635 
	C563.799011,983.357971 565.197693,979.864929 568.762390,977.559448 
	C572.205994,975.332275 575.542175,976.013184 578.931091,978.387573 
	C584.096558,982.006714 588.662354,986.907776 595.773254,986.888306 
	C596.842407,986.885376 597.929077,988.287109 598.984436,989.070251 
	C602.755493,991.868713 606.816772,993.104858 611.607422,992.268494 
	C615.558228,991.578796 617.883057,989.650818 618.750854,985.734802 
	C619.141785,983.970825 619.687927,982.156616 620.579895,980.604431 
	C623.218262,976.013367 626.935303,975.169678 630.820068,978.687073 
	C633.698303,981.293152 636.419739,981.981323 639.824463,980.304749 
	C639.972107,980.231995 640.144104,980.141113 640.296265,980.154541 
	C647.107117,980.757629 652.900085,977.812927 658.960754,975.308838 
	C663.593018,973.394958 675.519287,978.392944 677.561584,982.500244 
	C668.985596,979.024780 661.020386,982.010986 652.734924,984.196167 
	C651.714722,985.038330 650.819153,985.572205 650.229553,986.340759 
	C646.541565,991.148376 642.081238,992.395569 636.268250,990.313843 
	C633.943542,989.481262 631.060120,989.709778 628.519836,990.074219 
	C621.527771,991.077332 616.998413,998.093811 609.444153,998.110474 
	C608.627319,998.112244 607.814575,999.991516 607.000000,1001.000000 
	C591.312439,1001.000000 575.624878,1001.000000 559.468628,1001.000000 
z"/>
<path fill="#553B1E" opacity="1.000000" stroke="none" 
	d="
M470.468689,1001.000000 
	C471.065979,998.593567 472.130920,996.186646 473.198120,993.780701 
	C474.519135,990.802490 475.454956,987.561157 477.260895,984.913391 
	C479.592377,981.494934 482.070160,976.874512 485.465424,975.760864 
	C492.057373,973.598511 499.257233,973.244995 506.057404,976.810608 
	C510.150757,978.956909 514.602905,980.469666 518.989197,981.992310 
	C523.380920,983.516785 525.454895,986.173523 526.301270,990.958008 
	C526.894958,994.314331 529.827759,997.256897 531.858032,1000.692078 
	C511.645782,1001.000000 491.291534,1001.000000 470.468689,1001.000000 
z"/>
<path fill="#4F3519" opacity="1.000000" stroke="none" 
	d="
M678.013489,983.986145 
	C683.365356,985.696045 688.638489,986.882690 693.731873,983.058167 
	C694.478027,982.497864 696.194519,982.468262 697.054321,982.938477 
	C705.857727,987.752869 715.022095,985.994324 724.194824,984.726196 
	C725.637756,984.526672 727.455750,984.258118 728.568787,984.917969 
	C734.534485,988.454651 741.056885,987.827881 747.533203,988.080505 
	C756.450989,988.428467 763.332092,992.474915 767.916992,1000.655640 
	C745.312439,1001.000000 722.624878,1001.000000 699.327515,1000.706909 
	C696.159180,996.949219 694.042358,998.547729 692.000000,1001.000000 
	C690.611084,1001.000000 689.222229,1001.000000 687.238281,1000.712219 
	C683.766663,994.945007 680.890076,989.465576 678.013489,983.986145 
z"/>
<path fill="#51381B" opacity="1.000000" stroke="none" 
	d="
M678.009766,983.989868 
	C680.890076,989.465576 683.766663,994.945007 686.821594,1000.712219 
	C660.645752,1001.000000 634.291565,1001.000000 607.468628,1001.000000 
	C607.814575,999.991516 608.627319,998.112244 609.444153,998.110474 
	C616.998413,998.093811 621.527771,991.077332 628.519836,990.074219 
	C631.060120,989.709778 633.943542,989.481262 636.268250,990.313843 
	C642.081238,992.395569 646.541565,991.148376 650.229553,986.340759 
	C650.819153,985.572205 651.714722,985.038330 653.117676,984.327759 
	C657.763184,985.035522 662.327393,984.863464 665.611511,986.829529 
	C669.639160,989.240662 672.238953,989.839844 675.151245,985.850342 
	C675.779663,984.989502 677.042725,984.591980 678.013428,983.981018 
	C678.013428,983.981018 678.006104,983.993591 678.009766,983.989868 
z"/>
<path fill="#452D12" opacity="1.000000" stroke="none" 
	d="
M929.444153,1001.000000 
	C928.435669,994.456909 924.688904,990.635437 918.698547,988.437134 
	C916.134277,987.496155 913.822205,985.868103 911.196167,984.278564 
	C914.418945,984.091736 917.841187,984.178589 921.624695,984.140991 
	C926.887451,989.480713 931.788940,994.945007 936.845215,1000.704651 
	C934.629456,1001.000000 932.258850,1001.000000 929.444153,1001.000000 
z"/>
<path fill="#4D3418" opacity="1.000000" stroke="none" 
	d="
M805.073730,988.370239 
	C813.909180,986.695557 815.638489,989.576599 812.111816,1000.635193 
	C810.611084,1001.000000 809.222229,1001.000000 807.416626,1001.000000 
	C807.016479,1000.627014 807.032898,1000.254089 807.057739,999.601685 
	C810.684448,998.491638 811.035828,996.361084 809.179565,993.599365 
	C808.008545,991.857117 806.562561,990.299622 805.073730,988.370239 
z"/>
<path fill="#4D3418" opacity="1.000000" stroke="none" 
	d="
M776.460632,1001.000000 
	C779.521729,996.011414 783.237671,995.817139 787.833801,1000.694946 
	C784.307068,1001.000000 780.614197,1001.000000 776.460632,1001.000000 
z"/>
<path fill="#422A10" opacity="1.000000" stroke="none" 
	d="
M552.428467,1001.000000 
	C551.764160,998.923706 551.528320,996.847412 551.329285,994.379578 
	C553.521484,996.097412 555.676941,998.206787 557.916199,1000.658081 
	C556.285645,1001.000000 554.571289,1001.000000 552.428467,1001.000000 
z"/>
<path fill="#51381B" opacity="1.000000" stroke="none" 
	d="
M692.437500,1001.000000 
	C694.042358,998.547729 696.159180,996.949219 698.858887,1000.706909 
	C696.958313,1001.000000 694.916687,1001.000000 692.437500,1001.000000 
z"/>
<path fill="#422A10" opacity="1.000000" stroke="none" 
	d="
M258.255341,949.993713 
	C255.627258,942.997375 250.688812,939.641479 245.165695,941.118958 
	C242.264999,941.894897 240.665161,943.270569 240.553772,946.616516 
	C240.297867,954.303711 238.350449,961.432251 232.181580,966.731812 
	C231.553436,967.271484 231.029907,968.354370 230.397339,968.403320 
	C222.648804,969.003052 222.878067,975.396301 221.196823,980.567749 
	C220.544418,982.574768 218.933746,985.822998 217.768127,985.819275 
	C214.266205,985.808167 210.721756,984.608032 207.346130,983.434021 
	C207.031525,983.324585 207.303940,979.797241 208.184814,978.420593 
	C209.271332,976.722595 211.281006,975.615234 213.311584,973.897461 
	C210.746902,971.581604 208.699768,969.467834 206.358749,967.756042 
	C205.482864,967.115479 203.422623,966.819458 202.758621,967.380249 
	C199.534073,970.103333 196.784531,973.397461 193.514099,976.055481 
	C189.855118,979.029297 185.908752,981.692200 181.848404,984.084778 
	C181.220444,984.454895 178.756592,982.970764 178.098343,981.804321 
	C175.581482,977.344360 171.597565,976.073303 167.453674,977.823547 
	C156.927902,982.269226 146.654037,987.314331 136.307388,992.179138 
	C133.330994,993.578613 130.450089,995.181213 127.151566,996.753418 
	C132.235184,991.986084 137.586044,987.028748 143.171082,982.351013 
	C157.193222,970.606873 171.119736,958.734680 185.455505,947.382202 
	C205.508041,931.502502 228.755951,923.850464 254.094635,921.904602 
	C272.179230,920.515808 289.945221,922.046204 307.394623,927.005310 
	C309.463562,927.593262 311.445160,928.507996 313.431458,929.355164 
	C314.009277,929.601685 314.462830,930.139587 315.136780,930.673340 
	C311.077057,936.952698 307.087433,943.123657 303.035278,949.652466 
	C296.808411,950.814514 295.963196,952.266541 294.419464,958.397705 
	C293.722046,961.167664 291.140930,964.102112 288.607361,965.528625 
	C287.114502,966.369324 283.974426,964.563477 281.698792,963.642273 
	C280.035553,962.968994 278.431458,961.963928 277.068817,960.794678 
	C276.040070,959.911926 274.572327,958.335083 274.786560,957.412231 
	C275.879272,952.704041 273.210510,952.114746 269.625427,951.758179 
	C266.335510,951.430847 263.093048,950.626709 259.406647,950.025513 
	C258.983612,950.018494 258.498108,950.002075 258.255341,949.993713 
z"/>
<path fill="#422A10" opacity="1.000000" stroke="none" 
	d="
M357.067047,895.061768 
	C362.353333,891.655823 367.703583,888.343384 372.887665,884.788574 
	C390.461334,872.738464 409.527618,864.591187 430.897369,862.501404 
	C434.395508,862.159302 437.955872,862.453247 441.960205,862.453247 
	C439.019531,870.673157 436.352509,878.128235 433.533325,885.920532 
	C432.704102,881.383972 429.203674,879.828369 425.111511,880.351746 
	C421.613403,880.799133 418.207642,882.319458 414.876007,883.652649 
	C403.806000,888.082336 397.586456,898.770508 387.909393,904.855896 
	C379.955994,909.857300 371.456177,914.308289 362.668182,917.577515 
	C353.222534,921.091431 344.037872,924.109802 340.036438,934.565735 
	C339.697662,935.451172 338.947723,936.298218 338.175507,936.879944 
	C331.812256,941.673767 325.438629,946.456055 318.984680,951.126526 
	C315.220306,953.850708 312.471832,952.385803 310.298767,948.378174 
	C323.621002,932.322876 337.133057,916.535767 351.121033,900.339233 
	C352.094055,899.298950 352.591156,898.668152 353.088257,898.037354 
	C353.088287,898.037354 353.026764,898.043091 353.353546,897.985046 
	C354.811584,896.969482 355.942810,896.011902 357.074066,895.054382 
	C357.074066,895.054382 357.054901,895.044250 357.067047,895.061768 
z"/>
<path fill="#422A10" opacity="1.000000" stroke="none" 
	d="
M537.032471,833.172974 
	C530.854553,833.729614 524.259827,834.365601 517.652710,834.823853 
	C506.241913,835.615112 494.792511,835.984375 483.417114,837.112976 
	C472.477844,838.198303 462.665253,842.664917 453.301880,848.953979 
	C456.703583,839.721069 464.480591,836.102844 473.631409,835.121643 
	C483.476074,834.066040 493.384521,833.373474 503.281250,833.096741 
	C514.381470,832.786438 525.499634,833.119324 537.032471,833.172974 
z"/>
<path fill="#422A10" opacity="1.000000" stroke="none" 
	d="
M250.104248,916.518860 
	C249.316315,916.547241 248.820740,916.547241 248.325150,916.547241 
	C248.324051,916.313416 248.322968,916.079529 248.321869,915.845703 
	C259.418213,915.845703 270.514526,915.845703 281.610870,915.845703 
	C281.612122,916.060608 281.613373,916.275574 281.614624,916.490479 
	C271.208618,916.490479 260.802612,916.490479 250.104248,916.518860 
z"/>
<path fill="#090602" opacity="1.000000" stroke="none" 
	d="
M356.747681,895.133667 
	C355.942810,896.011902 354.811584,896.969482 353.366058,898.013306 
	C354.174957,897.137390 355.298126,896.175171 356.747681,895.133667 
z"/>
<path fill="#090602" opacity="1.000000" stroke="none" 
	d="
M352.850555,898.223389 
	C352.591156,898.668152 352.094055,899.298950 351.342529,900.100647 
	C351.596344,899.650818 352.104584,899.030151 352.850555,898.223389 
z"/>
<path fill="#422A10" opacity="1.000000" stroke="none" 
	d="
M451.785950,850.117798 
	C451.847778,850.448730 451.687836,850.944153 451.369110,851.651245 
	C451.328278,851.336121 451.446228,850.809143 451.785950,850.117798 
z"/>
<path fill="#422A10" opacity="1.000000" stroke="none" 
	d="
M452.820312,849.098938 
	C452.821533,849.223572 452.609741,849.488708 452.180298,849.888794 
	C452.177521,849.762390 452.392395,849.500916 452.820312,849.098938 
z"/>
<path fill="#422A10" opacity="1.000000" stroke="none" 
	d="
M126.750328,997.046204 
	C126.876427,997.111938 126.891350,997.315552 126.925201,997.825317 
	C126.842476,997.815674 126.740814,997.499878 126.750328,997.046204 
z"/>
<path fill="#452D12" opacity="1.000000" stroke="none" 
	d="
M897.765381,975.765381 
	C897.089661,980.117126 894.210327,980.653320 891.216797,978.904907 
	C887.771118,976.892273 884.573120,977.035156 880.785156,977.470764 
	C876.943726,977.912415 872.745605,977.289490 869.005615,976.145691 
	C861.574890,973.873108 854.320312,971.004395 847.050537,968.231079 
	C838.393616,964.928650 829.475586,962.099854 821.254944,957.917480 
	C810.702026,952.548523 800.841675,945.836060 790.467041,940.092407 
	C784.237732,936.643799 777.562317,934.008789 771.159119,930.862366 
	C768.813477,929.709778 766.121521,928.594849 764.533264,926.678833 
	C755.596924,915.897766 744.547485,908.816467 730.360107,906.102295 
	C729.494812,905.753235 728.996948,905.501160 728.173340,904.766785 
	C727.840393,902.640930 727.273254,900.720032 727.925659,899.403320 
	C730.382690,894.444885 728.119995,892.120972 723.853455,890.076294 
	C722.399231,889.379333 721.651794,887.202454 720.588074,885.697083 
	C719.058838,883.533020 717.978333,880.626953 715.900696,879.380249 
	C713.155579,877.733093 709.653687,877.293213 706.436218,876.500000 
	C701.853027,875.369934 698.893555,872.939453 699.245056,867.839111 
	C699.460754,864.708191 698.189392,862.966919 695.250305,861.796753 
	C693.556763,861.122559 691.196594,859.557007 690.997620,858.132690 
	C690.073425,851.515442 686.394958,853.671570 683.306580,855.615173 
	C677.647827,859.176270 671.448669,860.365906 665.125427,859.534668 
	C650.284363,857.583801 635.506958,855.137878 620.723511,852.769226 
	C617.829041,852.305481 615.801941,852.570374 613.857544,855.245911 
	C612.591492,856.987854 610.019897,858.571411 607.896362,858.771057 
	C594.485107,860.031982 581.039551,860.946594 567.596069,861.834717 
	C563.973633,862.074036 560.101501,861.024719 556.718079,861.943909 
	C544.203491,865.343628 531.689087,868.842468 519.965027,874.625732 
	C516.151489,876.506836 515.917480,878.020996 518.598938,881.456848 
	C519.611023,882.753601 519.595520,885.241577 519.285767,887.056335 
	C519.042480,888.482056 517.626831,889.707703 516.736145,891.016113 
	C525.677368,897.221680 525.677368,897.221680 523.005676,903.005005 
	C523.005676,903.005005 523.000000,903.000000 522.651611,903.110229 
	C518.873474,904.502197 515.495178,905.950195 512.003235,907.031372 
	C504.478760,909.361145 499.874451,907.091125 496.893280,899.772217 
	C495.953583,897.465210 495.337921,895.001892 494.194580,892.807739 
	C492.313049,889.196838 488.905243,888.042725 485.859070,890.517029 
	C479.784241,895.451111 472.692078,899.763916 471.638611,908.822998 
	C471.409515,910.793152 469.945831,912.718506 468.751556,914.459167 
	C465.290253,919.504395 461.637848,924.418152 458.143066,929.440979 
	C456.821045,931.341125 455.984955,933.625671 454.481628,935.345459 
	C447.190582,943.686035 447.439240,945.718323 456.223083,951.792969 
	C457.621216,952.759827 458.411194,954.962891 458.860565,956.750793 
	C459.017426,957.374878 457.299530,959.220337 456.438965,959.219543 
	C452.781250,959.216309 451.594757,961.892761 449.593994,964.143555 
	C447.046448,967.009338 446.543732,969.264771 448.923126,972.340881 
	C449.382355,972.934448 448.940399,974.745972 448.330902,975.557678 
	C445.248077,979.662720 442.055878,983.695068 438.701263,987.579590 
	C437.945587,988.454529 435.982697,989.399536 435.264191,989.017456 
	C429.661438,986.037659 426.720154,990.618225 423.000000,993.000000 
	C423.521057,989.916260 424.042084,986.832520 424.621643,983.402222 
	C426.129608,983.687927 427.218018,983.857910 428.289185,984.103027 
	C435.361481,985.721802 442.020508,982.290161 444.158539,975.547546 
	C444.472748,974.556519 443.322540,972.541077 442.280060,971.773254 
	C436.546692,967.550110 436.977325,967.740234 439.651031,960.878662 
	C442.414398,953.786987 442.997253,945.716675 446.420898,939.042419 
	C451.142212,929.838318 452.613159,919.151428 459.867645,911.063232 
	C463.203156,907.344360 465.329010,902.490417 467.685364,897.984863 
	C468.162689,897.072205 467.556122,894.576111 466.840546,894.279724 
	C465.575439,893.755737 463.549744,893.896729 462.390686,894.628174 
	C461.299896,895.316528 461.184875,897.419739 460.150879,898.364197 
	C458.989624,899.424805 457.279327,899.884216 455.807892,900.605103 
	C455.176178,898.897522 453.534454,896.710022 454.080048,895.561890 
	C457.147430,889.107300 461.066742,883.118530 467.303223,879.211365 
	C471.249939,876.738770 472.966064,879.699219 474.258240,882.696960 
	C483.177948,881.637817 490.531067,878.840332 495.602112,870.733704 
	C497.480103,867.731445 502.106659,865.982239 505.836914,864.703125 
	C513.340698,862.129944 522.301025,861.992676 528.428040,857.679321 
	C535.928101,852.399414 543.765076,849.596008 552.201111,848.637390 
	C560.482788,847.696228 569.049805,848.085632 577.371460,848.992859 
	C586.569824,849.995667 595.170227,850.493713 604.190735,846.703796 
	C612.392578,843.257751 621.277527,840.702881 630.522400,841.073975 
	C631.461060,841.111633 632.574585,841.335022 633.281555,841.888184 
	C639.333923,846.624207 646.545288,846.909180 653.605347,846.580872 
	C656.578247,846.442627 659.373352,843.814697 662.385742,842.681213 
	C664.151001,842.016907 666.296204,841.543396 668.071777,841.920288 
	C670.627686,842.462830 672.945129,844.049316 675.478638,844.809265 
	C676.795105,845.204224 679.008362,845.381287 679.700317,844.629395 
	C683.754883,840.224060 687.859253,842.219055 691.939697,844.173340 
	C695.576904,845.915588 698.530640,846.390137 700.476257,841.802124 
	C700.812988,841.007996 703.019897,840.277954 704.006653,840.602295 
	C712.769165,843.482605 715.312317,841.951843 715.893494,833.128662 
	C715.912292,832.843201 716.231995,832.577515 717.068054,831.296509 
	C720.392334,834.692932 723.548950,837.918091 727.478088,841.932556 
	C722.053223,843.346985 715.121094,843.068909 719.838135,851.749573 
	C717.060486,851.940430 715.243347,851.770386 713.629150,852.264099 
	C712.186707,852.705200 710.124756,853.677124 709.861328,854.779297 
	C709.521301,856.202332 710.194275,858.692993 711.311707,859.491516 
	C715.477173,862.468262 716.861389,866.663513 718.156860,871.266418 
	C718.740540,873.340332 720.609131,875.596191 722.513855,876.643799 
	C726.721497,878.958008 731.592712,880.115112 735.666565,882.605835 
	C738.393921,884.273132 741.192383,887.083923 742.195618,889.991577 
	C743.440613,893.599854 740.051758,895.741150 737.092285,897.607605 
	C735.530273,898.592651 734.463806,900.363464 733.173584,901.779480 
	C734.743958,903.088440 736.189880,904.606079 737.924072,905.640564 
	C739.316528,906.471375 741.024841,906.962463 742.650208,907.182922 
	C754.697571,908.816589 765.107178,914.961670 772.838684,923.210327 
	C778.982605,929.765259 785.993713,932.598816 793.441711,935.934692 
	C799.434753,938.619019 805.078674,942.078430 811.049500,944.819092 
	C813.043457,945.734375 815.600342,945.880859 817.846497,945.703491 
	C824.553528,945.173706 830.668518,945.946960 835.884827,950.862000 
	C837.098328,952.005371 839.563477,952.250549 841.428406,952.187744 
	C846.089844,952.030762 849.457031,953.374268 851.269775,958.061707 
	C852.567017,961.416077 862.621216,966.153503 866.175110,965.453247 
	C866.655884,965.358582 867.164978,965.209167 867.566162,964.942383 
	C869.358521,963.750549 871.680786,961.096680 872.784424,961.538208 
	C876.562622,963.049927 879.978943,965.539856 883.376648,967.883728 
	C884.393677,968.585266 885.056274,969.956848 885.605591,971.148560 
	C886.840698,973.827820 888.597534,974.613159 891.615234,974.145569 
	C893.470825,973.858032 895.551208,975.021362 897.765381,975.765381 
z"/>
<path fill="#493015" opacity="1.000000" stroke="none" 
	d="
M422.999146,993.248413 
	C426.720154,990.618225 429.661438,986.037659 435.264191,989.017456 
	C435.982697,989.399536 437.945587,988.454529 438.701263,987.579590 
	C442.055878,983.695068 445.248077,979.662720 448.330902,975.557678 
	C448.940399,974.745972 449.382355,972.934448 448.923126,972.340881 
	C446.543732,969.264771 447.046448,967.009338 449.593994,964.143555 
	C451.594757,961.892761 452.781250,959.216309 456.438965,959.219543 
	C457.299530,959.220337 459.017426,957.374878 458.860565,956.750793 
	C458.411194,954.962891 457.621216,952.759827 456.223083,951.792969 
	C447.439240,945.718323 447.190582,943.686035 454.481628,935.345459 
	C455.984955,933.625671 456.821045,931.341125 458.143066,929.440979 
	C461.637848,924.418152 465.290253,919.504395 468.751556,914.459167 
	C469.945831,912.718506 471.409515,910.793152 471.638611,908.822998 
	C472.692078,899.763916 479.784241,895.451111 485.859070,890.517029 
	C488.905243,888.042725 492.313049,889.196838 494.194580,892.807739 
	C495.337921,895.001892 495.953583,897.465210 496.893280,899.772217 
	C499.874451,907.091125 504.478760,909.361145 512.003235,907.031372 
	C515.495178,905.950195 518.873474,904.502197 522.653564,903.113037 
	C517.465271,906.883301 511.930359,910.766113 506.386688,914.636414 
	C503.672791,916.531189 501.001099,918.495972 498.199585,920.252502 
	C496.293457,921.447571 494.295654,922.703674 492.162415,923.286255 
	C487.657196,924.516602 486.674225,926.851318 489.345825,930.851135 
	C490.078186,931.947449 490.899109,933.058472 491.303711,934.286560 
	C492.777527,938.759827 490.627258,941.526917 485.982941,941.318054 
	C476.142212,940.875671 476.754364,941.883606 471.677948,950.493225 
	C466.769562,958.817932 461.875702,966.971375 457.686096,975.745972 
	C454.832794,981.721863 448.601349,986.168335 443.606445,991.016235 
	C437.780640,996.670715 430.476196,994.877441 423.245972,994.190796 
	C422.997253,993.993713 422.998322,993.496826 422.999146,993.248413 
z"/>
<path fill="#452D12" opacity="1.000000" stroke="none" 
	d="
M772.252136,916.500549 
	C771.754089,916.110229 771.429688,915.627014 771.105286,915.143738 
	C771.625183,914.899353 772.145081,914.654968 772.665039,914.410583 
	C772.585266,915.076233 772.505493,915.741943 772.252136,916.500549 
z"/>
<path fill="#452D12" opacity="1.000000" stroke="none" 
	d="
M577.549683,844.147827 
	C577.344116,844.712219 577.027039,845.158020 576.710022,845.603821 
	C576.500244,845.382446 576.290466,845.161072 576.080688,844.939636 
	C576.533203,844.636169 576.985779,844.332703 577.549683,844.147827 
z"/>
<path fill="#553B1E" opacity="1.000000" stroke="none" 
	d="
M737.170349,951.545166 
	C717.876160,946.808777 698.443909,946.456299 678.877380,947.950989 
	C676.247925,948.151855 673.586243,947.931274 670.476685,947.865784 
	C670.293945,947.224487 670.416443,946.289246 670.877625,946.071716 
	C678.959656,942.258179 677.032166,935.196106 676.560059,928.199219 
	C675.082214,928.653198 673.658386,929.090576 671.341431,929.802307 
	C672.482788,926.572754 673.168640,923.871948 674.460327,921.501343 
	C674.790955,920.894653 677.342285,920.802551 678.349731,921.382935 
	C682.323975,923.672791 683.490784,923.292175 683.881470,918.703491 
	C684.218689,914.741150 684.003052,910.722168 684.499329,906.787292 
	C684.716614,905.064758 686.098633,903.489197 686.951721,901.846863 
	C688.518982,902.773865 690.153503,903.605042 691.639465,904.647888 
	C694.696472,906.793091 697.786987,908.916138 700.648621,911.305969 
	C702.965820,913.241028 704.881042,915.649536 707.128052,917.677979 
	C711.903931,921.989624 714.091736,929.603821 722.296753,929.609253 
	C723.045471,929.609741 724.034668,930.048767 724.505005,930.619690 
	C729.007263,936.083679 735.271484,937.267090 741.773865,938.399353 
	C743.773254,938.747498 745.418640,941.128479 747.226074,942.578613 
	C745.686401,944.311340 744.287476,946.202820 742.565369,947.729858 
	C741.006104,949.112793 739.094299,950.098083 737.170349,951.545166 
z"/>
<path fill="#493015" opacity="1.000000" stroke="none" 
	d="
M523.342896,902.891052 
	C525.677368,897.221680 525.677368,897.221680 516.736145,891.016113 
	C517.626831,889.707703 519.042480,888.482056 519.285767,887.056335 
	C519.595520,885.241577 519.611023,882.753601 518.598938,881.456848 
	C515.917480,878.020996 516.151489,876.506836 519.965027,874.625732 
	C531.689087,868.842468 544.203491,865.343628 556.718079,861.943909 
	C560.101501,861.024719 563.973633,862.074036 567.596069,861.834717 
	C581.039551,860.946594 594.485107,860.031982 607.896362,858.771057 
	C610.019897,858.571411 612.591492,856.987854 613.857544,855.245911 
	C615.801941,852.570374 617.829041,852.305481 620.723511,852.769226 
	C635.506958,855.137878 650.284363,857.583801 665.125427,859.534668 
	C671.448669,860.365906 677.647827,859.176270 683.306580,855.615173 
	C686.394958,853.671570 690.073425,851.515442 690.997620,858.132690 
	C691.196594,859.557007 693.556763,861.122559 695.250305,861.796753 
	C698.189392,862.966919 699.460754,864.708191 699.245056,867.839111 
	C698.893555,872.939453 701.853027,875.369934 706.436218,876.500000 
	C709.653687,877.293213 713.155579,877.733093 715.900696,879.380249 
	C717.978333,880.626953 719.058838,883.533020 720.588074,885.697083 
	C721.651794,887.202454 722.399231,889.379333 723.853455,890.076294 
	C728.119995,892.120972 730.382690,894.444885 727.925659,899.403320 
	C727.273254,900.720032 727.840393,902.640930 727.924194,904.640991 
	C723.504089,904.401855 719.602173,903.028137 717.906860,898.166748 
	C717.565430,897.187683 716.478821,896.161072 715.491943,895.767334 
	C711.053772,893.996582 708.393677,890.876648 706.315552,886.552185 
	C705.257385,884.350281 702.263000,882.474243 699.755920,881.688293 
	C692.633972,879.455261 685.267700,878.016052 678.080750,875.971985 
	C669.026123,873.396729 660.067322,870.486450 651.039185,867.815430 
	C647.544128,866.781311 644.001404,865.391418 640.430237,865.221863 
	C626.131531,864.543213 611.816345,864.164062 598.091248,869.556763 
	C595.973633,870.388733 593.490112,871.051453 591.292297,870.794678 
	C576.078064,869.017151 563.128174,875.542542 550.055969,881.674866 
	C545.390076,883.863708 540.784363,886.181641 536.165405,888.469421 
	C532.432068,890.318604 529.900330,892.927795 528.696777,897.236755 
	C528.097229,899.383179 525.418335,900.948730 523.342896,902.891052 
z"/>
<path fill="#553B1E" opacity="1.000000" stroke="none" 
	d="
M340.657501,969.079712 
	C341.016602,969.444641 341.005615,969.891052 340.985443,970.672363 
	C339.575989,976.793213 337.613647,981.855896 330.425873,982.705566 
	C329.075562,982.865173 328.146423,985.783325 326.837219,987.264465 
	C324.135712,990.320984 321.621582,990.072144 318.920227,987.141968 
	C316.820557,984.864441 314.277374,982.995850 311.333160,980.422791 
	C311.373871,973.320801 315.413452,967.202576 322.785736,964.231323 
	C323.862274,963.797485 324.950653,963.388550 326.006348,962.908203 
	C331.883270,960.234375 331.858582,960.233398 333.456757,966.537476 
	C334.482483,970.583374 337.500214,969.611633 340.657501,969.079712 
z"/>
<path fill="#553B1E" opacity="1.000000" stroke="none" 
	d="
M393.698486,930.755981 
	C394.663574,929.813232 395.255920,928.838989 396.107574,928.480103 
	C398.015015,927.676208 400.051453,927.178528 402.035370,926.556213 
	C402.332123,929.010437 403.764130,932.339722 402.688080,933.735718 
	C400.483002,936.596252 397.007172,938.541321 393.828491,940.495605 
	C393.482452,940.708374 390.586487,938.345215 390.723053,937.463257 
	C391.069824,935.223328 392.466858,933.146057 393.698486,930.755981 
z"/>
<path fill="#4D3418" opacity="1.000000" stroke="none" 
	d="
M592.945190,964.668457 
	C598.767822,962.662720 604.248718,962.250305 608.860107,966.257446 
	C610.122681,967.354675 609.973450,970.076660 610.472168,972.052979 
	C608.573486,971.912048 606.167725,972.453186 604.877380,971.493896 
	C601.816528,969.218567 598.990906,968.072754 595.211548,969.508545 
	C593.587402,970.125488 591.633545,969.874451 589.829468,970.017822 
	C590.751221,968.286804 591.672974,966.555725 592.945190,964.668457 
z"/>
<path fill="#4F3519" opacity="1.000000" stroke="none" 
	d="
M678.011475,983.735718 
	C677.042725,984.591980 675.779663,984.989502 675.151245,985.850342 
	C672.238953,989.839844 669.639160,989.240662 665.611511,986.829529 
	C662.327393,984.863464 657.763184,985.035522 653.383789,984.128052 
	C661.020386,982.010986 668.985596,979.024780 677.657471,982.841003 
	C678.004883,982.999817 678.009521,983.490417 678.011475,983.735718 
z"/>
</svg>